HIERARCHY
ROOT SpineBase
{
  OFFSET 0.000000 0.000000 0.000000
  CHANNELS 6 Xposition Yposition Zposition Zrotation Xrotation Yrotation
  JOINT SpineMid
  {
    OFFSET -0.000000 29.949484 0.000000
    CHANNELS 3 Zrotation Xrotation Yrotation
    JOINT SpineShoulder
    {
      OFFSET 0.126532 22.407411 -0.907035
      CHANNELS 3 Zrotation Xrotation Yrotation
      JOINT Neck
      {
        OFFSET 0.142024 7.486259 -0.652733
        CHANNELS 3 Zrotation Xrotation Yrotation
        JOINT Head
        {
          OFFSET -0.313724 11.938960 4.551768
          CHANNELS 3 Zrotation Xrotation Yrotation
          End Site
          {
            OFFSET 0 0 0
          }
        }
      }
      JOINT ShoulderLeft
      {
        OFFSET -10.263985 -4.671605 -2.299631
        CHANNELS 3 Zrotation Xrotation Yrotation
        JOINT ElbowLeft
        {
          OFFSET -6.932401 -26.387961 6.071146
          CHANNELS 3 Zrotation Xrotation Yrotation
          JOINT WristLeft
          {
            OFFSET 30.548140 1.841173 -12.457448
            CHANNELS 3 Zrotation Xrotation Yrotation
            JOINT HandLeft
            {
              OFFSET 2.845186 6.751801 -4.666888
              CHANNELS 3 Zrotation Xrotation Yrotation
              JOINT HandTipLeft
              {
                OFFSET 2.440671 7.371647 -1.958076
                CHANNELS 3 Zrotation Xrotation Yrotation
                End Site
                {
                  OFFSET 0 0 0
                }
              }
              JOINT ThumbLeft
              {
                OFFSET 3.912813 -1.278796 1.179106
                CHANNELS 3 Zrotation Xrotation Yrotation
                End Site
                {
                  OFFSET 0 0 0
                }
              }
            }
          }
        }
      }
      JOINT ShoulderRight
      {
        OFFSET 9.488426 -6.689661 -10.206847
        CHANNELS 3 Zrotation Xrotation Yrotation
        JOINT ElbowRight
        {
          OFFSET 7.792746 -22.549327 0.754926
          CHANNELS 3 Zrotation Xrotation Yrotation
          JOINT WristRight
          {
            OFFSET 1.263936 -18.597479 9.439211
            CHANNELS 3 Zrotation Xrotation Yrotation
            JOINT HandRight
            {
              OFFSET -2.936192 -4.682783 9.152798
              CHANNELS 3 Zrotation Xrotation Yrotation
              JOINT HandTipRight
              {
                OFFSET 0.366503 -3.485222 2.410291
                CHANNELS 3 Zrotation Xrotation Yrotation
                End Site
                {
                  OFFSET 0 0 0
                }
              }
              JOINT ThumbRight
              {
                OFFSET 0.756414 4.118626 -1.922898
                CHANNELS 3 Zrotation Xrotation Yrotation
                End Site
                {
                  OFFSET 0 0 0
                }
              }
            }
          }
        }
      }
    }
  }
  JOINT HipLeft
  {
    OFFSET -4.724670 0.513843 -1.144848
    CHANNELS 3 Zrotation Xrotation Yrotation
    JOINT KneeLeft
    {
      OFFSET -7.157696 -34.874043 1.222975
      CHANNELS 3 Zrotation Xrotation Yrotation
      JOINT AnkleLeft
      {
        OFFSET -2.713437 -24.598998 2.238219
        CHANNELS 3 Zrotation Xrotation Yrotation
        JOINT FootLeft
        {
          OFFSET 1.396151 -5.843069 -0.866310
          CHANNELS 3 Zrotation Xrotation Yrotation
          End Site
          {
            OFFSET 0 0 0
          }
        }
      }
    }
  }
  JOINT HipRight
  {
    OFFSET 6.253770 2.399115 -4.879672
    CHANNELS 3 Zrotation Xrotation Yrotation
    JOINT KneeRight
    {
      OFFSET -3.459332 -32.295734 -5.074474
      CHANNELS 3 Zrotation Xrotation Yrotation
      JOINT AnkleRight
      {
        OFFSET -3.527701 -28.993584 -1.842282
        CHANNELS 3 Zrotation Xrotation Yrotation
        JOINT FootRight
        {
          OFFSET -4.846736 -3.052667 5.580621
          CHANNELS 3 Zrotation Xrotation Yrotation
          End Site
          {
            OFFSET 0 0 0
          }
        }
      }
    }
  }
}
MOTION
Frames: 5
Frame Time: 0.033333
-61.761383 66.318277 234.739988 0.581871 -0.929627 19.502590 0.495662 0.295943 -19.463193 -0.949950 0.485852 -0.037175 1.394439 -0.656901 -0.541936 0.000000 0.000000 0.000000 57.377937 27.813209 -10.669724 -93.580224 -14.371503 -52.811072 -128.253274 63.168132 30.730600 -43.237827 -3.254585 40.535882 0.000000 0.000000 0.000000 0.000000 0.000000 0.000000 1.043645 -0.771730 -0.223978 -1.046748 0.767516 0.238018 -1.933043 0.520314 -4.087385 -0.019201 -19.809238 -0.144094 0.000000 0.000000 0.000000 0.000000 0.000000 0.000000 -1.367491 0.672172 -19.356980 0.933250 0.750194 -0.127599 63.899984 41.555872 -22.380318 0.000000 0.000000 0.000000 -2.820386 0.290825 -18.952206 2.984926 2.273786 -0.705606 2.669828 24.068598 -56.892586 0.000000 0.000000 0.000000
-62.284089 66.247208 235.009999 -0.103376 -1.146914 18.957483 0.760709 0.271049 -18.941180 -0.527760 0.643603 -0.022038 1.410878 -0.667232 -0.548282 0.000000 0.000000 0.000000 57.341855 27.747934 -10.595901 -93.698501 -14.361458 -52.532456 -101.638966 53.349213 -4.365611 -54.695879 -3.181901 69.922582 0.000000 0.000000 0.000000 0.000000 0.000000 0.000000 1.038448 -0.723946 -0.208165 -1.041153 0.720049 0.221268 -1.588812 0.461342 -3.384729 -2.070227 -18.615619 -1.865822 0.000000 0.000000 0.000000 0.000000 0.000000 0.000000 0.470422 1.051107 -18.962833 1.234021 0.217278 0.086096 64.581802 42.354740 -23.600940 0.000000 0.000000 0.000000 -1.028119 0.394769 -18.635982 2.119113 1.555570 -0.454262 9.573847 27.187692 -62.050750 0.000000 0.000000 0.000000
-62.688790 66.168889 235.233494 -0.596838 -1.270577 18.584729 0.970789 1.013997 -18.599938 -0.000000 0.000000 0.000000 1.447168 -0.695371 -0.562367 0.000000 0.000000 0.000000 57.130468 27.338180 -10.136287 -93.561270 -14.242830 -51.456064 -93.882555 47.779715 -13.403551 -52.060061 -5.559195 49.545454 0.000000 0.000000 0.000000 0.000000 0.000000 0.000000 1.027039 -0.678240 -0.193292 -1.029392 0.674662 0.205432 -1.188999 1.224538 -3.123344 -2.929953 -19.172634 -2.467860 0.000000 0.000000 0.000000 0.000000 0.000000 0.000000 0.970789 1.013997 -18.599938 2.177626 0.411346 0.145322 61.041817 46.745151 -23.546497 0.000000 0.000000 0.000000 0.970789 1.013997 -18.599938 0.829218 0.485459 -0.115341 25.903315 31.576470 -82.870604 0.000000 0.000000 0.000000
-62.937723 66.101369 235.399733 -0.854060 -1.311690 18.201491 0.802801 0.240037 -18.219281 0.166318 0.832818 0.000821 1.466736 -0.780372 -0.571031 0.000000 0.000000 0.000000 57.463211 27.405541 -10.229384 -94.468293 -13.917701 -51.883891 -93.037925 44.728283 -17.242237 -54.472578 -5.999237 61.400718 0.000000 0.000000 0.000000 0.000000 0.000000 0.000000 1.003394 -0.648813 -0.184356 -1.005541 0.645481 0.195701 -0.816390 2.660183 -3.382495 -3.239795 -21.391982 -2.455813 0.000000 0.000000 0.000000 0.000000 0.000000 0.000000 1.221204 0.979095 -18.221703 2.412220 0.276616 0.183646 58.680150 45.652484 -22.098860 0.000000 0.000000 0.000000 1.221204 0.979095 -18.221703 -0.000000 0.000000 0.000000 47.437817 29.419250 -113.560469 0.000000 0.000000 0.000000
-62.963328 66.056880 235.471609 -0.808014 -1.226153 18.131983 0.557352 0.244992 -18.153526 0.354404 0.819898 0.007183 1.472622 -0.865507 -0.574549 0.000000 0.000000 0.000000 57.830542 27.801825 -10.687965 -95.567841 -13.567361 -53.419197 -97.130856 46.231219 -15.113665 -32.027734 -50.706408 -52.184475 0.000000 0.000000 0.000000 0.000000 0.000000 0.000000 0.958200 -0.679458 -0.196446 -0.960591 0.676074 0.207795 -0.704036 3.853483 -4.016620 -3.064678 -23.083692 -1.929200 0.000000 0.000000 0.000000 0.000000 0.000000 0.000000 1.149607 0.913647 -18.149796 2.164362 0.391121 0.146774 54.184995 42.911464 -18.653522 0.000000 0.000000 0.000000 2.063817 0.807198 -18.324990 -0.901243 -0.186236 0.160001 56.859209 27.058454 -115.809602 0.000000 0.000000 0.000000
